<?xml version="1.0" encoding="utf-8"?>
<!-- Generator: Adobe Illustrator 18.0.0, SVG Export Plug-In . SVG Version: 6.00 Build 0)  -->
<!DOCTYPE svg PUBLIC "-//W3C//DTD SVG 1.1//EN" "http://www.w3.org/Graphics/SVG/1.1/DTD/svg11.dtd">
<svg version="1.1" id="Livello_1" xmlns="http://www.w3.org/2000/svg" xmlns:xlink="http://www.w3.org/1999/xlink" x="0px" y="0px"
	 viewBox="0 0 46.826 38.312" enable-background="new 0 0 46.826 38.312" xml:space="preserve">
<path fill="#008237" d="M24.801,17.224c1.822-1.183,3.673-2.319,5.534-3.407c1.876-1.09,3.643-1.904,5.317-2.439
	c1.669-0.536,3.041-0.339,4.116,0.587c0.677,0.712,0.92,1.618,0.728,2.713c-0.199,1.101-0.684,2.309-1.468,3.631
	c-0.78,1.32-1.808,2.669-3.078,4.05c-1.272,1.38-2.608,2.679-4.014,3.893c-1.406,1.216-2.79,2.26-4.158,3.144
	c-1.361,0.877-2.573,1.479-3.619,1.802c-2.108,0.66-3.904,1.05-5.395,1.182c-1.479,0.137-2.736-0.074-3.748-0.632
	c-1.01-0.553-1.849-1.473-2.521-2.768c-0.671-1.289-1.272-3.042-1.811-5.261c-0.258-1.026-0.66-2.53-1.203-4.518
	c-0.534-1.984-0.954-3.943-1.238-5.876c-0.291-1.934-0.319-3.546-0.098-4.83c0.226-1.281,1.007-1.723,2.346-1.328
	c1.268,0.377,2.298,0.938,3.086,1.681c0.785,0.75,1.519,1.651,2.192,2.711c0.675,1.056,1.315,2.261,1.929,3.609
	c0.615,1.35,1.379,2.81,2.301,4.379C21.375,19.182,22.979,18.406,24.801,17.224z"/>
</svg>
